<?xml version="1.0"?>
<svg xmlns="https://www.w3.org/2000/svg" viewBox="0 0 24 24" width="500px" height="390px">
    <path d="M 12.5 2 C 10.450369 2 8.7245506 3.3969485 8.1875 5.28125 C 7.5435079 4.5074193 6.5764393 4 5.5 4 C 3.578848 4 2 5.578848 2 7.5 C 2 8.5610899 2.4950669 9.5123485 3.25 10.15625 C 2.5177531 10.453209 2 11.160891 2 12 L 2 17 C 2 18.105 2.895 19 4 19 L 6.59375 19 L 5.0625 20.53125 L 6.46875 21.9375 L 9 19.4375 L 11.5625 21.9375 L 12.96875 20.5 L 11.46875 19 L 15 19 C 16.105 19 17 18.105 17 17 L 17 16.40625 L 21 18 L 21 11 L 17 12.59375 L 17 12 C 17 10.980313 16.235997 10.155011 15.25 10.03125 C 16.305396 9.2055367 17 7.9347052 17 6.5 C 17 4.0265634 14.973437 2 12.5 2 z M 12.5 4 C 13.892557 4 15 5.1074434 15 6.5 C 15 7.8925566 13.892557 9 12.5 9 C 11.107443 9 10 7.8925566 10 6.5 C 10 5.1074434 11.107443 4 12.5 4 z M 5.5 6 C 6.3402718 6 7 6.6597282 7 7.5 C 7 8.3402718 6.3402718 9 5.5 9 C 4.6597282 9 4 8.3402718 4 7.5 C 4 6.6597282 4.6597282 6 5.5 6 z M 8.71875 8.875 C 8.9899842 9.3032746 9.3236903 9.6847592 9.71875 10 L 7.9375 10 C 8.2623922 9.6828696 8.5353945 9.2962205 8.71875 8.875 z"/>
</svg>
