<?xml version="1.0" encoding="utf-8"?>
<svg version="1.1" xmlns="https://www.w3.org/2000/svg" xmlns:xlink="https://www.w3.org/1999/xlink" width="500px" height="390px" x="0px" y="0px" viewBox="0 0 1000 1000" enable-background="new 0 0 1000 1000" xml:space="preserve">
  <path d="M911.6,305.7h-392l146-192.4c2,0.4,5.9,1.2,8.1,1.2c21.5,0,36.8-18.2,36.8-40.8c0-22.4-17.4-40.7-38.9-40.7c-21.5,0-38.9,18.3-38.9,40.7c0,4.9,1.1,7.3,2.7,11.6L475.6,264.3h-5.8L299.6,65.4c1.5-4.4,2.7-8.9,2.7-13.8c0-22.5-17.4-40.7-38.9-40.7c-21.5,0-38.9,18.3-38.9,40.7c0,22.5,17.4,40.7,38.9,40.7c2.2,0-4.4-0.9-2.5-1.2l180.4,214.6H49.3c-43,0-39.2,35.4-39.2,80.4V919c0,45,35.4,70.1,78.4,70.1h823.1c43,0,78.4-35.4,78.4-80.4V386.1C990,341.1,954.6,305.7,911.6,305.7 M715.6,788.1c0,45-59.9,113.1-117.6,120.6H166.9c-43,0-78.4-75.6-78.4-120.6V506.7c0-45,37.1-120.6,80.1-120.6h422.6c43,0,124.4,75.6,124.4,120.6V788.1z M827.3,719.3c-43,0-75.7-29.8-75.7-74.8c0-45,32.7-79.3,75.7-79.3c43,0,73.6,34.3,73.6,79.3C900.9,689.5,870.3,719.3,827.3,719.3 M827.3,513.3c-43,0-73.6-29.9-73.6-74.8c0-45.1,30.6-74.8,73.6-74.8c43,0,73.6,32,73.6,77.1C900.9,485.7,870.3,513.3,827.3,513.3"/>
</svg>